<svg width="32" height="23" viewBox="0 0 32 23" fill="none" xmlns="http://www.w3.org/2000/svg">
<path d="M16 0C7.16798 0 0 5.13904 0 11.4711C0 17.8031 7.16798 22.9421 16 22.9421C24.8319 22.9421 31.9999 17.8031 31.9999 11.4711C31.9999 5.13904 24.8319 0 16 0ZM23.4239 7.80032C23.1839 9.61275 22.1439 14.0176 21.6159 16.048C21.3919 16.9083 20.9439 17.1951 20.5279 17.2295C19.5999 17.2869 18.8959 16.7936 17.9999 16.3692C16.5919 15.7039 15.792 15.2909 14.432 14.6485C12.848 13.9029 13.872 13.49 14.784 12.8247C15.024 12.6526 19.1199 9.97983 19.1999 9.73893C19.2111 9.70245 19.2096 9.66457 19.1956 9.62859C19.1817 9.5926 19.1557 9.5596 19.1199 9.53246C19.0239 9.4751 18.8959 9.49804 18.7839 9.50951C18.6399 9.53245 16.4 10.5993 12.032 12.7099C11.392 13.0197 10.816 13.1803 10.304 13.1688C9.72797 13.1573 8.63997 12.9394 7.82398 12.7444C6.81598 12.5149 6.03198 12.3887 6.09598 11.9873C6.12798 11.7808 6.52798 11.5743 7.27998 11.3564C11.952 9.89953 15.056 8.93596 16.6079 8.47712C21.0559 7.14647 21.9679 6.91705 22.5759 6.91705C22.7039 6.91705 23.0079 6.93999 23.1999 7.0547C23.3599 7.14647 23.4079 7.27265 23.4239 7.36442C23.4079 7.43325 23.4399 7.63973 23.4239 7.80032Z" fill="white"/>
</svg>
