<svg width="32" height="23" viewBox="0 0 32 23" fill="none" xmlns="http://www.w3.org/2000/svg">
<path d="M12.8 16.3872L21.1039 11.4711L12.8 6.55489V16.3872ZM31.2959 3.55603C31.5039 4.32623 31.6479 5.35863 31.7439 6.6696C31.8559 7.98058 31.9039 9.1113 31.9039 10.0945L31.9999 11.4711C31.9999 15.0599 31.7439 17.6982 31.2959 19.3861C30.8959 20.8609 29.9679 21.8114 28.5279 22.2211C27.7759 22.4341 26.3999 22.5816 24.2879 22.6799C22.2079 22.7946 20.3039 22.8438 18.5439 22.8438L16 22.9421C9.29597 22.9421 5.11998 22.6799 3.47199 22.2211C2.03199 21.8114 1.104 20.8609 0.703998 19.3861C0.495999 18.6159 0.351999 17.5835 0.255999 16.2725C0.144 14.9615 0.0959996 13.8308 0.0959996 12.8476L0 11.4711C0 7.88226 0.255999 5.24391 0.703998 3.55603C1.104 2.08118 2.03199 1.13072 3.47199 0.721038C4.22399 0.508004 5.59998 0.360519 7.71198 0.262195C9.79197 0.147485 11.696 0.0983233 13.456 0.0983233L16 0C22.7039 0 26.8799 0.262196 28.5279 0.721038C29.9679 1.13072 30.8959 2.08118 31.2959 3.55603Z" fill="#F5F5F5"/>
</svg>
