<svg width="24" height="18" viewBox="0 0 24 18" fill="none" xmlns="http://www.w3.org/2000/svg">
<path d="M23.4944 15.1058C23.8163 15.3366 23.9971 15.6496 23.9971 15.976C23.9971 16.3024 23.8163 16.6154 23.4944 16.8462C23.1724 17.077 22.7358 17.2066 22.2805 17.2066C21.8252 17.2066 21.3886 17.077 21.0667 16.8462L12 10.3442L2.93047 16.8441C2.60854 17.0749 2.17191 17.2046 1.71663 17.2046C1.26135 17.2046 0.82472 17.0749 0.502789 16.8441C0.180859 16.6134 4.79714e-09 16.3003 0 15.9739C-4.79714e-09 15.6476 0.180859 15.3345 0.502789 15.1037L9.57232 8.60384L0.505645 2.10188C0.183715 1.87109 0.00285616 1.55807 0.00285616 1.23168C0.00285617 0.905288 0.183715 0.592266 0.505645 0.361474C0.827576 0.130681 1.26421 0.0010236 1.71949 0.0010236C2.17476 0.00102359 2.6114 0.130681 2.93333 0.361474L12 6.86343L21.0695 0.36045C21.3915 0.129658 21.8281 -5.43765e-09 22.2834 0C22.7386 5.43765e-09 23.1753 0.129658 23.4972 0.36045C23.8191 0.591242 24 0.904264 24 1.23065C24 1.55704 23.8191 1.87006 23.4972 2.10086L14.4277 8.60384L23.4944 15.1058Z" fill="#FFFEFE"/>
</svg>
