<svg width="32" height="32" viewBox="0 0 32 32" fill="none" xmlns="http://www.w3.org/2000/svg">
<path d="M15.8897 0C7.1186 0 0 7.168 0 16C0 24.832 7.1186 32 15.8897 32C24.6608 32 31.7794 24.832 31.7794 16C31.7794 7.168 24.6608 0 15.8897 0ZM23.2626 10.88C23.0242 13.408 21.9914 19.552 21.467 22.384C21.2446 23.584 20.7996 23.984 20.3865 24.032C19.4649 24.112 18.7658 23.424 17.8759 22.832C16.4776 21.904 15.6832 21.328 14.3325 20.432C12.7594 19.392 13.7764 18.816 14.6821 17.888C14.9204 17.648 18.9882 13.92 19.0677 13.584C19.0787 13.5331 19.0772 13.4803 19.0634 13.4301C19.0495 13.3799 19.0237 13.3339 18.9882 13.296C18.8929 13.216 18.7658 13.248 18.6545 13.264C18.5115 13.296 16.287 14.784 11.9491 17.728C11.3135 18.16 10.7415 18.384 10.233 18.368C9.66095 18.352 8.58045 18.048 7.77007 17.776C6.76902 17.456 5.99043 17.28 6.05398 16.72C6.08576 16.432 6.48301 16.144 7.22982 15.84C11.8696 13.808 14.9522 12.464 16.4935 11.824C20.9109 9.968 21.8166 9.64799 22.4204 9.64799C22.5475 9.64799 22.8494 9.67999 23.0401 9.83999C23.199 9.96799 23.2467 10.144 23.2626 10.272C23.2467 10.368 23.2784 10.656 23.2626 10.88Z" fill="white"/>
</svg>
